<?xml version="1.0" standalone="no"?>
<!DOCTYPE svg PUBLIC "-//W3C//DTD SVG 20010904//EN"
 "http://www.w3.org/TR/2001/REC-SVG-20010904/DTD/svg10.dtd">
<svg version="1.0" xmlns="http://www.w3.org/2000/svg"
 width="273.000000pt" height="273.000000pt" viewBox="0 0 273.000000 273.000000"
 preserveAspectRatio="xMidYMid meet">
<metadata>
Created by potrace 1.14, written by Peter Selinger 2001-2017
</metadata>
<g transform="translate(0.000000,273.000000) scale(0.100000,-0.100000)"
fill="#000000" stroke="none">
<path d="M238 2514 c-61 -33 -58 29 -58 -1159 0 -951 2 -1090 15 -1115 33 -63
-33 -60 1160 -60 1193 0 1127 -3 1160 60 13 25 15 164 15 1115 0 1193 3 1127
-60 1160 -25 13 -164 15 -1117 15 -943 -1 -1092 -3 -1115 -16z m1260 -489
c178 -42 296 -158 320 -317 l9 -56 -78 -7 c-86 -8 -99 -4 -99 28 -1 30 -36
107 -63 135 -83 89 -326 108 -447 34 -86 -52 -114 -166 -59 -237 33 -41 88
-63 293 -115 276 -70 342 -100 420 -191 50 -60 69 -122 64 -222 -4 -101 -30
-160 -103 -233 -90 -90 -214 -134 -380 -134 -248 1 -416 86 -498 254 -21 43
-53 174 -44 182 1 1 38 5 83 9 l80 7 13 -55 c35 -159 165 -242 376 -241 197 2
305 79 305 216 0 107 -62 158 -252 207 -327 85 -380 105 -453 172 -72 67 -99
127 -99 224 -1 68 3 89 27 137 51 104 159 181 292 208 67 13 226 11 293 -5z"/>
</g>
</svg>
